<svg width="24" height="24" viewBox="0 0 24 24" fill="none" xmlns="http://www.w3.org/2000/svg">
<g clip-path="url(#clip0_36_138)">
<path d="M15.2653 19.2347C15.3357 19.305 15.3752 19.4005 15.3752 19.5C15.3752 19.5995 15.3357 19.6949 15.2653 19.7653C15.1949 19.8356 15.0995 19.8752 15 19.8752C14.9005 19.8752 14.805 19.8356 14.7347 19.7653L7.23468 12.2653C7.19981 12.2304 7.17215 12.1891 7.15328 12.1436C7.13441 12.098 7.12469 12.0492 7.12469 12C7.12469 11.9507 7.13441 11.9019 7.15328 11.8564C7.17215 11.8108 7.19981 11.7695 7.23468 11.7347L14.7347 4.23465C14.7695 4.19981 14.8109 4.17217 14.8564 4.15332C14.9019 4.13446 14.9507 4.12476 15 4.12476C15.0493 4.12476 15.0981 4.13446 15.1436 4.15332C15.1891 4.17217 15.2305 4.19981 15.2653 4.23465C15.3001 4.26949 15.3278 4.31086 15.3466 4.35638C15.3655 4.4019 15.3752 4.45069 15.3752 4.49996C15.3752 4.54924 15.3655 4.59803 15.3466 4.64355C15.3278 4.68907 15.3001 4.73044 15.2653 4.76528L8.03061 12L15.2653 19.2347Z" fill="black" fill-opacity="0.9"/>
</g>
<defs>
<clipPath id="clip0_36_138">
<rect width="24" height="24" fill="white"/>
</clipPath>
</defs>
</svg>
